<?xml version="1.0" encoding="UTF-8" standalone="no"?>
<svg
   width="1974.9883"
   height="1974.9883"
   viewBox="0 0 1974.9883 1974.9883"
   version="1.1"
   xml:space="preserve"
   style="clip-rule:evenodd;fill-rule:evenodd;stroke-linejoin:round;stroke-miterlimit:2"
   id="svg65"
   sodipodi:docname="coin-1.svg"
   inkscape:version="1.1 (c4e8f9e, 2021-05-24)"
   xmlns:inkscape="http://www.inkscape.org/namespaces/inkscape"
   xmlns:sodipodi="http://sodipodi.sourceforge.net/DTD/sodipodi-0.dtd"
   xmlns="http://www.w3.org/2000/svg"
   xmlns:svg="http://www.w3.org/2000/svg"><defs
   id="defs69"><inkscape:path-effect
   effect="skeletal"
   id="path-effect2116"
   is_visible="true"
   lpeversion="1"
   pattern="m 2731.6996,-1573.4341 a 37.538235,37.538235 0 0 1 -37.5382,37.5383 37.538235,37.538235 0 0 1 -37.5383,-37.5383 37.538235,37.538235 0 0 1 37.5383,-37.5382 37.538235,37.538235 0 0 1 37.5382,37.5382 z"
   copytype="repeated"
   prop_scale="1"
   scale_y_rel="false"
   spacing="2.2"
   normal_offset="-0.2"
   tang_offset="1.3"
   prop_units="true"
   vertical_pattern="false"
   hide_knot="false"
   fuse_tolerance="0" />
        
    
            
            
        
                
            
                    
                    
                
                        
                        
                        
                    
                        
                        
                    
                            
                        
                            
                        
                            
                        
                            
                        
                            
                            
                            
                            
                            
                            
                            
                            
                        
                                
                            
                                
                            
                                
                            
                                
                            
                                
                            
                                
                            
                                
                            
                                
                            </defs><sodipodi:namedview
   id="namedview67"
   pagecolor="#ffffff"
   bordercolor="#666666"
   borderopacity="1.0"
   inkscape:pageshadow="2"
   inkscape:pageopacity="0.0"
   inkscape:pagecheckerboard="0"
   showgrid="false"
   inkscape:zoom="0.15580357"
   inkscape:cx="1742.5788"
   inkscape:cy="953.12321"
   inkscape:window-width="2560"
   inkscape:window-height="1048"
   inkscape:window-x="1280"
   inkscape:window-y="0"
   inkscape:window-maximized="1"
   inkscape:current-layer="svg65" />
    <g
   id="path1255"
   transform="translate(287.49414,787.49418)"><path
     style="color:#000000;clip-rule:nonzero;fill:#000000;fill-rule:nonzero;stroke-width:121.446;stroke-linejoin:miter;-inkscape-stroke:none;paint-order:markers fill stroke"
     d="M 1626.7712,200 A 926.77118,926.77118 0 0 1 700,1126.7712 926.77118,926.77118 0 0 1 -226.77118,200 926.77118,926.77118 0 0 1 700,-726.77118 926.77118,926.77118 0 0 1 1626.7712,200 Z"
     id="path2450" /><path
     style="color:#000000;clip-rule:nonzero;fill:#ffffff;fill-rule:nonzero;stroke-linejoin:miter;-inkscape-stroke:none;paint-order:markers fill stroke"
     d="m 700,-787.49414 c -261.87615,0 -513.08927,104.05607 -698.2636719,289.23047 C -183.43807,-313.08927 -287.49414,-61.876149 -287.49414,200 -287.49415,461.87615 -183.43807,713.08927 1.7363281,898.26367 186.91073,1083.4381 438.12385,1187.4941 700,1187.4941 c 261.87616,0 513.0893,-104.056 698.2637,-289.23043 C 1583.4381,713.08927 1687.4941,461.87616 1687.4941,200 c 0,-261.876153 -104.056,-513.08927 -289.2304,-698.26367 C 1213.0893,-683.43807 961.87615,-787.49415 700,-787.49414 Z m 0,121.44531 c 229.71336,0 449.9568,91.22828 612.3887,253.66016 162.4318,162.43187 253.6601,382.675309 253.6601,612.38867 0,229.71336 -91.2283,449.95679 -253.6601,612.38867 C 1149.9568,974.82055 929.71336,1066.0488 700,1066.0488 470.28664,1066.0488 250.0432,974.82055 87.611328,812.38867 -74.820546,649.95679 -166.04883,429.71336 -166.04883,200 c 0,-229.713358 91.228285,-449.9568 253.660158,-612.38867 C 250.0432,-574.82054 470.28664,-666.04883 700,-666.04883 Z"
     id="path2452" /></g><path
   style="color:#000000;clip-rule:nonzero;fill:#000000;fill-rule:nonzero;stroke-width:60;stroke-linecap:round;stroke-linejoin:miter;-inkscape-stroke:none"
   d="m 1913.2786,1162.1921 c -20.0302,-4.2317 -32.821,-23.8496 -29.6318,-43.1905 3.1872,-19.3288 21.6214,-33.8299 42.0274,-31.3769 9.8079,1.179 18.7161,6.2854 24.6602,14.4843 5.9372,8.1893 8.3376,18.6989 6.6021,29.0444 -1.7355,10.3453 -7.4317,19.4894 -15.6937,25.3016 -8.2713,5.8188 -18.33,7.7725 -27.9642,5.7371 z m -80.7797,226.812 c -18.3037,-9.3331 -25.5346,-31.6583 -17.2682,-49.5493 8.2628,-17.8831 29.9274,-26.8453 48.8577,-19.0132 9.1056,3.7673 16.3071,11.0627 19.8659,20.5133 3.5549,9.4404 3.1268,20.1612 -1.2292,29.6361 -4.3561,9.4753 -12.2111,16.7705 -21.6965,20.202 -9.4943,3.4347 -19.7336,2.6963 -28.5297,-1.7889 z m -135.1606,200.5572 c -15.6295,-13.5019 -17.3446,-37.0477 -4.9045,-52.556 12.4382,-15.506 35.7815,-18.9408 52.3357,-6.6496 7.9608,5.9108 13.202,14.7929 14.3773,24.8663 1.1742,10.0637 -1.8356,20.3913 -8.366,28.5517 -6.5307,8.1606 -15.945,13.3576 -26.0233,14.4081 -10.0874,1.0515 -19.9068,-2.1308 -27.4192,-8.6205 z m -178.8146,163.5755 c -12.0273,-16.7378 -8.2313,-40.0177 7.4591,-52.2106 15.6929,-12.1948 39.2041,-10.1191 52.4617,5.7141 6.3721,7.61 9.4019,17.4753 8.1944,27.5431 -1.2064,10.0588 -6.5484,19.3894 -14.8087,25.7913 -8.26,6.4017 -18.6319,9.25 -28.674,7.92 -10.0518,-1.3313 -18.8485,-6.7085 -24.6325,-14.7579 z m -211.7419,115.867 c -7.5082,-19.0541 1.8166,-40.5552 19.8227,-48.513 18.0144,-7.9614 40.208,-0.3683 49.2356,18.0777 4.3384,8.8647 4.9081,19.1104 1.3173,28.544 -3.5874,9.4245 -11.0112,17.1565 -20.5571,21.3547 -9.5455,4.1981 -20.2709,4.4485 -29.6486,0.7377 -9.388,-3.7149 -16.5584,-11.0359 -20.1699,-20.2011 z m -233.9422,57.4316 c -2.0683,-20.4717 12.7949,-38.6393 32.1864,-41.4633 19.4036,-2.8257 38.7916,10.3317 42.6572,30.4414 1.8595,9.6734 -0.2792,19.6994 -6.254,27.8687 -5.9681,8.1599 -15.2246,13.6939 -25.6113,15.2422 -10.3871,1.5483 -20.8618,-1.0458 -28.9472,-7.139 -8.095,-6.1004 -13.0371,-15.1116 -14.0311,-24.95 z m -242.01824,-11.2952 c 3.89899,-20.1026 23.30815,-33.2267 42.70628,-30.3677 19.38592,2.8571 34.21622,21.0492 32.11281,41.5151 -1.01087,9.8357 -5.96804,18.8376 -14.07257,24.9238 -8.09499,6.079 -18.57296,8.6555 -28.9563,7.09 -10.38301,-1.5653 -19.62938,-7.1141 -25.58329,-15.2835 -5.96066,-8.1786 -8.08245,-18.2077 -6.20693,-27.8777 z m -228.03662,-77.2044 c 9.05552,-18.4332 31.26137,-25.9934 49.26464,-18.0041 17.99514,7.9857 27.28696,29.5019 19.74918,48.5449 -3.62572,9.1599 -10.80759,16.47 -20.20135,20.1707 -9.38355,3.6967 -20.10867,3.4301 -29.64777,-0.7824 -9.53955,-4.2127 -16.95176,-11.9559 -20.52499,-21.3861 -3.57663,-9.4392 -2.99155,-19.6844 1.36029,-28.543 z M 400.36447,1705.712 c 13.27995,-15.8148 36.79455,-17.8578 52.47087,-5.6405 15.67376,12.2153 19.43695,35.5013 7.38554,52.2226 -5.79559,8.0413 -14.60017,13.4063 -24.65407,14.7234 -10.04416,1.3159 -20.41212,-1.5472 -28.66317,-7.9607 -8.25128,-6.4136 -13.58015,-15.752 -14.77244,-25.8126 -1.19336,-10.0697 1.85041,-19.931 8.23327,-27.5322 z m -166.0771,-176.5164 c 16.57111,-12.2674 39.90888,-8.7998 52.32497,6.7232 12.41792,15.5252 10.67007,39.0682 -4.9781,52.548 -7.52129,6.4791 -17.34497,9.6476 -27.43071,8.5819 -10.07665,-1.0647 -19.48352,-6.2749 -26.00251,-14.4446 -6.51883,-8.1695 -9.51396,-18.5013 -8.32564,-28.5631 1.18948,-10.0716 6.44306,-18.9461 14.41199,-24.8454 z M 115.28028,1319.1135 c 9.09616,-3.747 19.34562,-3.6845 28.42837,-0.093 9.09379,3.5958 16.38601,10.461 20.39857,19.1799 8.23887,17.9023 0.97507,40.2158 -17.34174,49.5214 -8.80244,4.472 -19.0424,5.195 -28.53129,1.7461 -9.47997,-3.4456 -17.32388,-10.7526 -21.66578,-20.2344 -4.3417,-9.4813 -4.75369,-20.2026 -1.18459,-29.6375 3.57297,-9.445 10.78533,-16.7291 19.89646,-20.4824 z m -61.21024,-232.921 c 9.79253,-1.1601 19.67073,1.6749 27.46005,7.5679 7.80045,5.9013 12.97682,14.4437 14.51672,23.8825 3.15632,19.3468 -9.66777,38.944 -29.70538,43.1427 -9.63782,2.0194 -19.69367,0.049 -27.95581,-5.784 -8.2529,-5.8264 -13.93444,-14.9807 -15.65298,-25.3299 -1.71859,-10.3493 0.69938,-20.8558 6.65072,-29.0358 5.95833,-8.1896 14.87598,-13.2811 24.68668,-14.4434 z m 7.07807,-242.2214 c 20.17165,3.56302 33.62923,22.75805 31.10371,42.21018 -1.23242,9.49235 -6.13121,18.20853 -13.74597,24.37073 -7.60367,6.15321 -17.40153,9.31761 -27.24504,8.47803 -9.86199,-0.84116 -18.95648,-5.64699 -25.18476,-13.6549 -6.22092,-7.99847 -8.97436,-18.44271 -7.58059,-28.86228 1.39371,-10.41917 6.79303,-19.76693 14.86743,-25.8625 8.08368,-6.10258 18.08105,-8.39335 27.78522,-6.67926 z m 73.59112,-229.22317 c 18.55938,8.77456 26.44901,30.8558 18.74007,48.96808 -3.75508,8.82263 -10.83847,15.89008 -19.81739,19.74658 -8.96786,3.85175 -19.20583,4.21528 -28.40292,0.73854 -9.21243,-3.48253 -16.63041,-10.5488 -20.47305,-19.88345 -3.83843,-9.32443 -3.73419,-20.05174 0.33322,-29.65352 4.06761,-9.60222 11.69698,-17.13056 21.0698,-20.84552 9.38177,-3.71851 19.63096,-3.28761 28.55027,0.92929 z M 263.98827,410.50259 c 15.99685,13.05469 18.36769,36.53283 6.37643,52.37386 -11.98907,15.83814 -35.21242,19.92983 -52.09747,8.12148 -8.12035,-5.67887 -13.60811,-14.40374 -15.0671,-24.43594 -1.45757,-10.02241 1.25788,-20.42855 7.5528,-28.76869 6.2951,-8.3404 15.55534,-13.80029 25.59608,-15.13429 10.04979,-1.33521 19.95075,1.56916 27.63926,7.84358 z M 438.16839,241.96192 c 12.5043,16.40115 9.36508,39.79139 -5.98721,52.42749 -15.35426,12.63773 -38.92364,11.21774 -52.62249,-4.24216 -6.58455,-7.431 -9.89076,-17.21091 -8.9669,-27.31235 0.92302,-10.09231 6.0005,-19.57326 14.07812,-26.20779 8.07744,-6.6344 18.36695,-9.77544 28.44631,-8.72882 10.08901,1.04763 19.03913,6.17668 25.05217,14.06363 z M 646.55277,119.85275 c 3.88706,9.04077 3.98159,19.29317 0.52722,28.43316 -3.45854,9.15102 -10.21597,16.55002 -18.87807,20.69583 -17.78702,8.51313 -40.21515,1.57848 -49.79539,-16.6058 -4.60388,-8.73864 -5.47948,-18.97065 -2.17245,-28.51269 3.30394,-9.53312 10.49306,-17.48687 19.9092,-21.97084 9.41567,-4.483759 20.13071,-5.056449 29.62047,-1.62909 9.49995,3.43105 16.8956,10.53389 20.78902,19.58943 z M 878.41456,54.901911 c 1.32655,9.76344 -1.33648,19.68078 -7.09242,27.56461 -5.76407,7.89496 -14.21368,13.2143 -23.62206,14.91374 -19.28661,3.483769 -39.08771,-9.00734 -43.61615,-28.96943 -2.17791,-9.60059 -0.37475,-19.68415 5.31625,-28.03698 5.68472,-8.3436 14.73604,-14.1706 25.04602,-16.05781 10.31014,-1.88723 20.84632,0.35543 29.11856,6.1649 8.28196,5.81628 13.52082,14.63954 14.8498,24.42097 z m 242.33114,2.85336 c -3.2238,20.23723 -22.1993,34.02866 -41.7022,31.83966 -9.5182,-1.06832 -18.3246,-5.81789 -24.6241,-13.33172 -6.2902,-7.50274 -9.6292,-17.25517 -8.9606,-27.12325 0.6698,-9.88672 5.3222,-19.07298 13.2313,-25.44333 7.8997,-6.36283 18.3081,-9.29408 28.7623,-8.07356 10.4537,1.22045 19.902,6.46817 26.1393,14.44538 6.2445,7.9865 8.7051,17.95004 7.154,27.68682 z m 230.3717,69.939809 c -8.4903,18.68217 -30.4417,26.90142 -48.6597,19.47602 -8.8749,-3.61729 -16.0475,-10.58765 -20.0412,-19.5029 -3.9887,-8.90418 -4.512,-19.13298 -1.1798,-28.380909 3.3378,-9.26347 10.2863,-16.78837 19.5596,-20.77295 9.2631,-3.98019 19.9904,-4.03918 29.6533,-0.11841 9.6633,3.92094 17.3069,11.43432 21.1636,20.74751 3.8604,9.322149 3.5846,19.573109 -0.4958,28.551639 z m 206.0324,126.23625 c -12.8261,16.1756 -36.2625,18.87434 -52.265,7.11238 -15.9992,-11.75961 -20.4194,-34.91495 -8.8574,-51.96051 5.5606,-8.19776 14.2036,-13.80749 24.2119,-15.40833 9.9984,-1.59927 20.4406,0.9677 28.8682,7.14249 8.428,6.17499 14.018,15.35496 15.4937,25.37357 1.4771,10.02763 -1.287,19.96617 -7.4514,27.7404 z m 170.9662,171.80584 c -16.2279,12.73795 -39.6652,9.92703 -52.5181,-5.25125 -12.8542,-15.17996 -11.7621,-38.77055 3.5062,-52.68508 7.3392,-6.6884 17.0732,-10.13147 27.1881,-9.34945 10.1057,0.78131 19.6586,5.7252 26.4071,13.70913 6.7484,7.98379 10.0345,18.22892 9.1296,28.32357 -0.9058,10.10426 -5.9095,19.12787 -13.7129,25.25308 z m 125.1733,206.64862 c -18.7071,8.38233 -40.6385,0.0463 -49.4191,-17.6149 -8.7842,-17.66841 -2.1786,-40.20591 15.8698,-50.0575 8.6733,-4.73425 18.8952,-5.76148 28.4882,-2.59633 9.584,3.16221 17.6455,10.23264 22.2699,19.58153 4.6243,9.34844 5.3568,20.05508 2.0711,29.5975 -3.2891,9.5526 -10.2815,17.05767 -19.2799,21.0897 z m 68.6535,230.76455 c -20.2836,3.10813 -39.1623,-10.76709 -42.9681,-29.97853 -3.8081,-19.22323 8.3503,-39.22278 28.2335,-44.0778 9.5618,-2.33478 19.6709,-0.69803 28.1122,4.85105 8.4321,5.54303 14.4024,14.49044 16.4567,24.75968 2.0543,10.26933 -0.014,20.83305 -5.6815,29.19536 -5.6743,8.37209 -14.4022,13.75613 -24.1528,15.25024 z"
   id="path1255-5" /><g
   id="g1387"
   transform="matrix(4.8155888,0,0,4.8155888,144.93278,24.314201)"
   inkscape:export-filename="/home/set/Nextcloud/work/alephium/Social media/coin-bumpmap1.png"
   inkscape:export-xdpi="99.550003"
   inkscape:export-ydpi="99.550003"><path
     style="color:#000000;clip-rule:nonzero;fill:#ffffff;fill-rule:nonzero;stroke-width:0.842587;stroke-linejoin:miter;-inkscape-stroke:none"
     d="m 147.17954,245.11284 c 0,-3.65753 -2.89064,-6.1207 -6.46143,-5.49117 l -42.679446,7.52441 c -3.57079,0.62953 -6.46143,4.11195 -6.46143,7.76948 v 80.70791 c 0,3.66588 2.89064,6.12905 6.46143,5.49952 l 42.679446,-7.52441 c 3.57079,-0.62953 6.46143,-4.11195 6.46143,-7.77783 z"
     id="path4" /><path
     style="color:#000000;clip-rule:nonzero;fill:#ffffff;fill-rule:nonzero;stroke-width:0.842587;stroke-linejoin:miter;-inkscape-stroke:none"
     d="m 258.35354,64.39403 c 0,-3.657533 -2.89064,-6.120702 -6.46143,-5.49117 l -42.67945,7.524411 c -3.57079,0.629532 -6.46143,4.111944 -6.46143,7.769478 v 80.707911 c 0,3.66588 2.89064,6.12905 6.46143,5.49952 l 42.67945,-7.52441 c 3.57079,-0.62954 6.46143,-4.11195 6.46143,-7.77783 z"
     id="path8" /><path
     style="color:#000000;clip-rule:nonzero;fill:#ffffff;fill-rule:nonzero;stroke-width:1.43689;stroke-linejoin:miter;-inkscape-stroke:none"
     d="m 154.11264,83.23183 c -1.64841,-3.630545 -6.07949,-6.022535 -9.90533,-5.348036 l -45.727925,8.061865 c -3.825843,0.674498 -5.58898,4.158534 -3.940571,7.789079 L 195.79689,316.75092 c 1.64841,3.63054 6.08903,6.04352 9.91487,5.36902 l 45.72792,-8.06186 c 3.82585,-0.6745 5.57945,-4.17952 3.93104,-7.81007 z"
     id="path12" /></g>
</svg>
